<svg width="25" height="25" viewBox="0 0 25 25" fill="none" xmlns="http://www.w3.org/2000/svg">
<g id="mdi:eye">
<path id="Vector" d="M12.4998 9.375C11.671 9.375 10.8762 9.70424 10.2901 10.2903C9.70408 10.8763 9.37484 11.6712 9.37484 12.5C9.37484 13.3288 9.70408 14.1237 10.2901 14.7097C10.8762 15.2958 11.671 15.625 12.4998 15.625C13.3286 15.625 14.1235 15.2958 14.7095 14.7097C15.2956 14.1237 15.6248 13.3288 15.6248 12.5C15.6248 11.6712 15.2956 10.8763 14.7095 10.2903C14.1235 9.70424 13.3286 9.375 12.4998 9.375ZM12.4998 17.7083C11.1185 17.7083 9.79374 17.1596 8.81699 16.1828C7.84024 15.2061 7.2915 13.8813 7.2915 12.5C7.2915 11.1187 7.84024 9.7939 8.81699 8.81715C9.79374 7.8404 11.1185 7.29167 12.4998 7.29167C13.8812 7.29167 15.2059 7.8404 16.1827 8.81715C17.1594 9.7939 17.7082 11.1187 17.7082 12.5C17.7082 13.8813 17.1594 15.2061 16.1827 16.1828C15.2059 17.1596 13.8812 17.7083 12.4998 17.7083ZM12.4998 4.6875C7.2915 4.6875 2.84359 7.92708 1.0415 12.5C2.84359 17.0729 7.2915 20.3125 12.4998 20.3125C17.7082 20.3125 22.1561 17.0729 23.9582 12.5C22.1561 7.92708 17.7082 4.6875 12.4998 4.6875Z" fill="#F8F8F8"/>
</g>
</svg>
