<svg width="19" height="21" viewBox="0 0 19 21" fill="none" xmlns="http://www.w3.org/2000/svg">
<g id="lock">
<path id="Vector" d="M15.0417 9.625H3.95833C3.08388 9.625 2.375 10.4085 2.375 11.375V17.5C2.375 18.4665 3.08388 19.25 3.95833 19.25H15.0417C15.9161 19.25 16.625 18.4665 16.625 17.5V11.375C16.625 10.4085 15.9161 9.625 15.0417 9.625Z" stroke="black" stroke-width="2" stroke-linecap="round" stroke-linejoin="round"/>
<path id="Vector_2" d="M5.54166 9.625V6.125C5.54166 4.96468 5.95869 3.85188 6.70103 3.03141C7.44336 2.21094 8.45017 1.75 9.49999 1.75C10.5498 1.75 11.5566 2.21094 12.299 3.03141C13.0413 3.85188 13.4583 4.96468 13.4583 6.125V9.625" stroke="black" stroke-width="2" stroke-linecap="round" stroke-linejoin="round"/>
</g>
</svg>
