<svg version="1.2" xmlns="http://www.w3.org/2000/svg" viewBox="0 0 1410 40" width="1410" height="40">
	<title>image</title>
	<style>
		.s0 { fill: #41c3bc } 
	</style>
	<path id="Layer" class="s0" d="m0 12.8h35.1v27.2h-35.1z"/>
	<path id="Layer" class="s0" d="m328.3 12.8h35v27.2h-35.1z"/>
	<path id="Layer" class="s0" d="m54.7 0h35.1v27.2h-35.1z"/>
	<path id="Layer" class="s0" d="m383 0h35v27.2h-35z"/>
	<path id="Layer" class="s0" d="m109.4 12.8h35.1v27.2h-35.1z"/>
	<path id="Layer" class="s0" d="m437.7 12.8h35v27.2h-35z"/>
	<path id="Layer" class="s0" d="m165.5 0h35.1v27.2h-35.1z"/>
	<path id="Layer" class="s0" d="m488.9 0h35v27.2h-35z"/>
	<path id="Layer" class="s0" d="m218.8 12.8h35.1v27.2h-35.1z"/>
	<path id="Layer" class="s0" d="m547.1 12.8h35.1v27.2h-35.1z"/>
	<path id="Layer" class="s0" d="m277.8 0h34.3v27.2h-34.4z"/>
	<path id="Layer" class="s0" d="m601.8 0h34.4v27.2h-34.4z"/>
	<path id="Layer" class="s0" d="m709.8 0h34.4v27.2h-34.4z"/>
	<path id="Layer" class="s0" d="m656.5 12.8h35.1v27.2h-35.1z"/>
	<path id="Layer" class="s0" d="m765.9 12.8h35.1v27.2h-35.1z"/>
	<path id="Layer" class="s0" d="m824.8 0h34.4v27.2h-34.4z"/>
	<path id="Layer" class="s0" d="m932.8 0h34.4v27.2h-34.4z"/>
	<path id="Layer" class="s0" d="m879.5 12.8h35.1v27.2h-35.1z"/>
	<path id="Layer" class="s0" d="m985 12.8h35.1v27.2h-35.1z"/>
	<path id="Layer" class="s0" d="m1313.3 12.8h35v27.2h-35z"/>
	<path id="Layer" class="s0" d="m1039.7 0h35.1v27.2h-35.1z"/>
	<path id="Layer" class="s0" d="m1368 0h35v27.2h-35z"/>
	<path id="Layer" class="s0" d="m1094.4 12.8h35.1v27.2h-35.1z"/>
	<path id="Layer" class="s0" d="m1423 13h17v27h-17z"/>
	<path id="Layer" class="s0" d="m1150.5 0h35.1v27.2h-35.1z"/>
	<path id="Layer" class="s0" d="m1203.8 12.8h35.1v27.2h-35.1z"/>
	<path id="Layer" class="s0" d="m1262.8 0h34.3v27.2h-34.3z"/>
</svg>