<svg width="30" height="30" viewBox="0 0 30 30" fill="none" xmlns="http://www.w3.org/2000/svg">
<g id="ei:calendar">
<path id="Vector" d="M22.2 22.8H7.8C6.78 22.8 6 22.02 6 21V7.8C6 6.78 6.66 6 7.5 6H8.4V7.2H7.5C7.38 7.2 7.2 7.44 7.2 7.8V21C7.2 21.36 7.44 21.6 7.8 21.6H22.2C22.56 21.6 22.8 21.36 22.8 21V7.8C22.8 7.44 22.62 7.2 22.5 7.2H21.6V6H22.5C23.34 6 24 6.78 24 7.8V21C24 22.02 23.22 22.8 22.2 22.8Z" fill="#666666"/>
<path id="Vector_2" d="M10.2002 8.40005C9.8402 8.40005 9.6002 8.16005 9.6002 7.80005V5.40005C9.6002 5.04005 9.8402 4.80005 10.2002 4.80005C10.5602 4.80005 10.8002 5.04005 10.8002 5.40005V7.80005C10.8002 8.16005 10.5602 8.40005 10.2002 8.40005ZM19.8002 8.40005C19.4402 8.40005 19.2002 8.16005 19.2002 7.80005V5.40005C19.2002 5.04005 19.4402 4.80005 19.8002 4.80005C20.1602 4.80005 20.4002 5.04005 20.4002 5.40005V7.80005C20.4002 8.16005 20.1602 8.40005 19.8002 8.40005ZM12.0002 6.00005H18.0002V7.20005H12.0002V6.00005ZM7.2002 9.60005H22.8002V10.8H7.2002V9.60005ZM20.4002 12H21.6002V13.2H20.4002V12ZM18.0002 12H19.2002V13.2H18.0002V12ZM15.6002 12H16.8002V13.2H15.6002V12ZM13.2002 12H14.4002V13.2H13.2002V12ZM10.8002 12H12.0002V13.2H10.8002V12ZM20.4002 14.4H21.6002V15.6H20.4002V14.4ZM18.0002 14.4H19.2002V15.6H18.0002V14.4ZM15.6002 14.4H16.8002V15.6H15.6002V14.4ZM13.2002 14.4H14.4002V15.6H13.2002V14.4ZM10.8002 14.4H12.0002V15.6H10.8002V14.4ZM8.4002 14.4H9.6002V15.6H8.4002V14.4ZM20.4002 16.8H21.6002V18H20.4002V16.8ZM18.0002 16.8H19.2002V18H18.0002V16.8ZM15.6002 16.8H16.8002V18H15.6002V16.8ZM13.2002 16.8H14.4002V18H13.2002V16.8ZM10.8002 16.8H12.0002V18H10.8002V16.8ZM8.4002 16.8H9.6002V18H8.4002V16.8ZM18.0002 19.2H19.2002V20.4H18.0002V19.2ZM15.6002 19.2H16.8002V20.4H15.6002V19.2ZM13.2002 19.2H14.4002V20.4H13.2002V19.2ZM10.8002 19.2H12.0002V20.4H10.8002V19.2ZM8.4002 19.2H9.6002V20.4H8.4002V19.2Z" fill="#666666"/>
</g>
</svg>
