<svg width="34" height="34" viewBox="0 0 34 34" fill="none" xmlns="http://www.w3.org/2000/svg">
<g id="uiw:logout" clip-path="url(#clip0_114_82)">
<path id="Vector" d="M17.408 0C22.7545 0 27.7049 2.3715 30.9876 6.3648C31.0811 6.47799 31.1509 6.60885 31.1928 6.74957C31.2348 6.89029 31.2479 7.038 31.2316 7.18392C31.2153 7.32984 31.1697 7.47098 31.0977 7.59895C31.0257 7.72691 30.9287 7.83909 30.8125 7.9288C30.5759 8.11427 30.2763 8.20026 29.9773 8.16852C29.6784 8.13679 29.4035 7.98982 29.2111 7.7588C27.7757 6.02008 25.9722 4.62167 23.9308 3.66447C21.8894 2.70726 19.661 2.21514 17.4063 2.2236C9.0508 2.2236 2.2763 8.84 2.2763 17C2.2763 25.16 9.0508 31.7764 17.4063 31.7764C19.6935 31.7851 21.9532 31.2788 24.018 30.295C26.0827 29.3112 27.8995 27.8751 29.3335 26.0933C29.5227 25.8599 29.7953 25.7093 30.0936 25.6735C30.3919 25.6376 30.6924 25.7193 30.9315 25.9012C31.0488 25.9894 31.1471 26.1002 31.2207 26.2272C31.2942 26.3541 31.3415 26.4945 31.3598 26.6401C31.378 26.7857 31.3668 26.9334 31.3268 27.0746C31.2868 27.2157 31.2189 27.3474 31.127 27.4618C27.8494 31.5588 22.8327 34 17.408 34C7.7911 34 0 26.3891 0 17C0 7.6109 7.7928 0 17.408 0ZM29.0666 12.172L33.6668 16.7739C34.1122 17.2176 34.1207 17.9299 33.6872 18.3651L29.1924 22.8582C28.9791 23.0669 28.6917 23.1824 28.3933 23.1792C28.0949 23.176 27.81 23.0544 27.6012 22.8412C27.4953 22.7379 27.4107 22.6147 27.3524 22.4787C27.2942 22.3427 27.2633 22.1966 27.2615 22.0486C27.2598 21.9007 27.2872 21.7538 27.3423 21.6165C27.3974 21.4792 27.479 21.3541 27.5825 21.2483L30.2124 18.6184H12.6854C12.5376 18.6202 12.3909 18.5929 12.2537 18.538C12.1165 18.4831 11.9914 18.4017 11.8856 18.2984C11.7798 18.1952 11.6955 18.0721 11.6372 17.9363C11.579 17.8004 11.5482 17.6544 11.5464 17.5066C11.5464 16.8912 12.0564 16.3931 12.6854 16.3931H30.1427L27.4941 13.7445C27.2807 13.536 27.1588 13.2512 27.1553 12.9528C27.1518 12.6544 27.2669 12.3668 27.4754 12.1533C27.6889 11.9448 27.9765 11.8297 28.2749 11.8332C28.5733 11.8367 28.858 11.9586 29.0666 12.172Z" fill="#98D0CD"/>
</g>
<defs>
<clipPath id="clip0_114_82">
<rect width="34" height="34" fill="white"/>
</clipPath>
</defs>
</svg>
