<svg width="23" height="22" viewBox="0 0 23 22" fill="none" xmlns="http://www.w3.org/2000/svg">
<g id="carbon:result-draft">
<path id="Vector" d="M21.3469 13.2687L19.1906 11.2062C18.9031 10.9312 18.4719 10.9312 18.1844 11.2062L11.5 17.6V20.625H14.6625L21.3469 14.2313C21.6344 13.9563 21.6344 13.5437 21.3469 13.2687ZM14.0875 19.25H12.9375V18.15L16.5312 14.7125L17.6813 15.8125L14.0875 19.25ZM18.6875 14.85L17.5375 13.75L18.6875 12.65L19.8375 13.75L18.6875 14.85ZM7.1875 15.8125H8.625V17.1875H7.1875V15.8125ZM10.0625 12.375H12.9375V13.75H10.0625V12.375ZM7.1875 12.375H8.625V13.75H7.1875V12.375ZM10.0625 8.9375H15.8125V10.3125H10.0625V8.9375ZM7.1875 8.9375H8.625V10.3125H7.1875V8.9375Z" fill="white"/>
<path id="Vector_2" d="M5.03125 19.25V4.8125H7.1875V6.875H15.8125V4.8125H17.9688V8.9375H19.4062V4.8125C19.4062 4.05625 18.7594 3.4375 17.9688 3.4375H15.8125V2.75C15.8125 1.99375 15.1656 1.375 14.375 1.375H8.625C7.83437 1.375 7.1875 1.99375 7.1875 2.75V3.4375H5.03125C4.24062 3.4375 3.59375 4.05625 3.59375 4.8125V19.25C3.59375 20.0063 4.24062 20.625 5.03125 20.625H8.625V19.25H5.03125ZM8.625 2.75H14.375V5.5H8.625V2.75Z" fill="white"/>
</g>
</svg>
